<?xml version="1.0" encoding="utf-8"?>
<!-- Generator: Adobe Illustrator 17.1.0, SVG Export Plug-In . SVG Version: 6.00 Build 0)  -->
<!DOCTYPE svg PUBLIC "-//W3C//DTD SVG 1.1//EN" "http://www.w3.org/Graphics/SVG/1.1/DTD/svg11.dtd">
<svg version="1.1" id="Layer_1" xmlns="http://www.w3.org/2000/svg" xmlns:xlink="http://www.w3.org/1999/xlink" x="0px" y="0px"
	 viewBox="0 0 400 444" enable-background="new 0 0 400 444" fill-opacity=".05" xml:space="preserve">
<g>
	<path fill="#A7A9AC" d="M370.5,207c-1.5-14.8-4.8-29.9-9.5-44c-13.5-40.3-38.6-81.6-70.3-110.1c-1.4-1.2-6.7-4.4-8.7-3.3
		c-5.2,2.9,4.6,22.8,5.8,26.4c7.4,22,12.1,45.3,6.8,68.3c-7.1,30.4-30.4,51.7-61.5,54.3c-17.1,1.4-34.3-0.5-51.4,1.5
		c-25.6,3-51.7,11.8-68,32.8c-1.9,2.4-3.6,5.1-5.2,7.9c-0.1,0-0.2,0-0.4,0c-6.3,0.7-12.6-2-15.7-3.7c-0.8-0.5-1.6-0.9-2.2-1.2
		c-19-10.5-33-34-41.6-53.4c-3.9-9-7.2-18.4-9.3-27.9c-1-4.3-1.1-8.8-1.3-13.2c-0.1-2.7,0.3-6.5-1.2-8.9c-3.3-5.2-7.5-0.2-8.2,4
		c-1.1,6.9-2.1,13.7-1.8,20.7c0.5,11.8,3.8,23.5,8,34.5c6.2,16.2,14.9,31.1,26.2,44.4c4.7,5.5,9.7,10.6,15.1,15.3
		c4.8,4.3,10.9,7.7,14.5,13.2c4.2,6.3,4.9,14.1,4.5,21.4c-1,19.3-1.6,37.4,3.9,56.2c4.8,16.7,10.8,33.8,20.8,48.1
		c5,7.1,11.2,14.6,18,19.9c4.6,3.6,13.3,4,8.3-9.2c-11.1-29.3-12.1-59.7,5.2-87.1c14.5-22.8,40.1-43.1,69-39.5
		c42.5,5.3,72.1,44.3,70,86c-0.6,11.7-1,21.7-4.7,32.7c-1.5,4.4-2.6,10-1.5,14.6c1.8,7.8,10.5,4.9,14.3-0.2
		c10.3-14,21.1-27.6,30.8-42C360.8,318.3,376.2,263.7,370.5,207z"/>
	<path fill="#A7A9AC" d="M132.4,92.1c0.7,2.3,1.4,4.8,1.9,7.5c0.1,1.1,0.4,2.3,1,3.4c2.6,6.8,8.9,10.5,14.8,14
		c3.6,2.2,10.1,4.3,14.1,5.9c5.2,2.1,16.4-0.6,21.7-1c12.2-1,23.5-5.3,34.7,1.2c-57.4,67.3-3.2,82.3,38.8,49.9
		c48-37,2.8-124.3,2.8-124.3s-1-6.8-19.2-10.8c-1.7-0.9-3.4-1.7-5.1-2.4c-18-8.3-34.2,5.3-47.2,16.4c-3.8,3.2-7.5,6.4-11.5,9.4
		c-5.4,4-11.2,7.3-17.3,10.2c-6.4,3-14,6.4-21.1,6.7c-1,0-2.9,0.2-4.9,0.6c-3.1,0.3-4.7,1.1-5.4,2.5c-1.2,1-2,2.4-1.8,4.2
		c0.2,2.5,1.4,4.6,2.7,6.2C131.8,91.8,132.1,92,132.4,92.1z"/>
</g>
</svg>
