<?xml version="1.0" encoding="utf-8"?>
<!-- Generator: Adobe Illustrator 17.1.0, SVG Export Plug-In . SVG Version: 6.00 Build 0)  -->
<!DOCTYPE svg PUBLIC "-//W3C//DTD SVG 1.1//EN" "http://www.w3.org/Graphics/SVG/1.1/DTD/svg11.dtd">
<svg version="1.1" id="Layer_1" xmlns="http://www.w3.org/2000/svg" xmlns:xlink="http://www.w3.org/1999/xlink" x="0px" y="0px"
	 viewBox="0 0 1022.4 763.2" enable-background="new 0 0 1022.4 763.2" xml:space="preserve">
<path fill="#CFD4D8" d="M203.7,555c1.9-1.1,4.7-2.3,8.3-3.5c3.6-1.2,7.6-1.8,12.1-1.8c6,0,11.3,1.1,16,3.4c4.7,2.3,8.7,5.5,11.9,9.5
	c3.2,4.1,5.7,8.9,7.4,14.6c1.7,5.7,2.6,11.9,2.6,18.8c0,7.1-1,13.5-3,19.2c-2,5.7-4.9,10.6-8.6,14.6c-3.7,4-8.1,7.1-13.3,9.2
	c-5.2,2.2-11,3.2-17.3,3.2c-7,0-13.2-0.5-18.7-1.5c-5.5-1-9.8-2-13.1-3V510.8l15.8-2.7V555z M203.7,626.5c2.4,0.6,4.8,1.1,7.2,1.4
	c2.4,0.3,4.7,0.5,6.9,0.5c8.8,0,15.6-2.7,20.6-8.1c5-5.4,7.4-13.5,7.4-24.3c0-4.6-0.4-8.9-1.3-12.9c-0.9-4-2.3-7.4-4.2-10.3
	c-1.9-2.9-4.4-5.1-7.3-6.8c-3-1.6-6.6-2.5-10.8-2.5c-3.7,0-7.2,0.7-10.7,2.2c-3.4,1.5-6,3-7.8,4.7V626.5z"/>
<path fill="#CFD4D8" d="M293.1,564.9h-25.5v-13.1h41.1v54.3c0,8.8,1.2,14.6,3.6,17.6c2.4,3,6,4.5,10.9,4.5c3.7,0,7.1-0.4,10.2-1.3
	c3.1-0.9,5.6-1.8,7.3-2.9l2.3,13.3c-0.8,0.4-1.8,0.9-3.2,1.4c-1.4,0.6-3,1.1-4.9,1.6c-1.8,0.5-3.9,1-6.1,1.3c-2.2,0.4-4.5,0.6-7,0.6
	c-5.6,0-10.2-0.8-13.9-2.3c-3.7-1.5-6.6-3.8-8.9-6.9c-2.2-3-3.8-6.8-4.7-11.3c-0.9-4.5-1.3-9.7-1.3-15.7V564.9z M297.1,538.1
	c-3.3,0-6.2-1.1-8.6-3.4c-2.4-2.3-3.6-5.4-3.6-9.3c0-3.9,1.2-7,3.6-9.3c2.4-2.3,5.3-3.4,8.6-3.4c3.4,0,6.3,1.1,8.7,3.4
	c2.3,2.3,3.5,5.4,3.5,9.3c0,3.9-1.2,7-3.5,9.3C303.4,536.9,300.5,538.1,297.1,538.1z"/>
<path fill="#CFD4D8" d="M366.4,551.8h37.3v13.1h-37.3v41.1c0,4.4,0.3,8.1,1,10.9c0.6,2.8,1.7,5,3.1,6.8c1.5,1.7,3.3,2.9,5.6,3.5
	c2.3,0.6,5.1,1,8.4,1c4.6,0,8.3-0.4,11-1.1c2.8-0.8,5.5-1.8,8-3l2.3,13.3c-1.8,0.8-4.6,1.8-8.5,3c-3.9,1.3-8.7,1.9-14.4,1.9
	c-6.6,0-12-0.8-16.2-2.3c-4.2-1.5-7.5-3.8-9.8-6.9c-2.4-3-4-6.8-4.9-11.3c-0.9-4.5-1.3-9.7-1.3-15.7v-41.1h-18.7v-13.1h18.7V527
	l15.6-2.7V551.8z"/>
<path fill="#FFFFFF" d="M482.6,522.3h15.6v117.9h-15.6v-54.9h-46.9v54.9h-15.6V522.3h15.6V572h46.9V522.3z"/>
<path fill="#FFFFFF" d="M589.7,596c0,7-1,13.3-3,19c-2,5.7-4.7,10.5-8.3,14.6c-3.6,4.1-7.8,7.2-12.8,9.4c-5,2.2-10.4,3.3-16.2,3.3
	c-5.7,0-11-1.1-15.9-3.3c-4.9-2.2-9.1-5.4-12.7-9.4c-3.6-4.1-6.3-8.9-8.3-14.6c-2-5.6-3-12-3-19c0-7,1-13.3,3-19
	c2-5.7,4.7-10.6,8.3-14.6c3.6-4,7.8-7.1,12.7-9.3c4.9-2.2,10.2-3.3,15.9-3.3c5.8,0,11.2,1.1,16.2,3.3c5,2.2,9.2,5.3,12.8,9.3
	c3.6,4,6.3,8.9,8.3,14.6C588.7,582.6,589.7,589,589.7,596z M573.5,596c0-10-2.2-17.9-6.5-23.7c-4.3-5.8-10.2-8.7-17.5-8.7
	c-7.2,0-13,2.9-17.2,8.7c-4.3,5.8-6.4,13.7-6.4,23.7c0,9.9,2.1,17.8,6.4,23.5c4.3,5.8,10,8.7,17.2,8.7c7.4,0,13.2-2.9,17.5-8.7
	C571.3,613.7,573.5,605.9,573.5,596z"/>
<path fill="#FFFFFF" d="M668.6,637.7c-3.4,0.9-8,1.8-13.6,2.9c-5.7,1-12.3,1.5-19.9,1.5c-6.7,0-12.3-1-16.8-3
	c-4.4-2-8.1-4.8-10.9-8.4c-2.8-3.6-4.8-7.9-5.9-12.9c-1.1-5-1.7-10.4-1.7-16.4v-49.7h15.6v46.3c0,10.9,1.6,18.7,4.9,23.2
	c3.2,4.6,8.7,6.9,16.3,6.9c1.6,0,3.3-0.1,5-0.2c1.7-0.1,3.3-0.3,4.9-0.5c1.5-0.2,2.9-0.4,4-0.6c1.1-0.2,1.9-0.3,2.3-0.5v-74.7h15.8
	V637.7z"/>
<path fill="#FFFFFF" d="M680,554.3c5.7-1.4,11.4-2.5,17-3.2c5.6-0.8,11-1.1,15.9-1.1c11.8,0,20.7,3,26.8,9.1c6,6.1,9,15.9,9,29.3
	v51.8h-15.6v-49c0-5.7-0.5-10.3-1.5-13.9c-1-3.6-2.4-6.3-4.3-8.3c-1.8-2-4.1-3.3-6.7-4.1c-2.6-0.8-5.4-1.1-8.5-1.1
	c-2.5,0-5.2,0.2-8.1,0.5c-2.9,0.3-5.6,0.7-8.3,1.2v74.7H680V554.3z"/>
<path fill="#FFFFFF" d="M818.7,510.8l15.8-2.7v129.5c-3.4,1-7.8,2-13.1,3c-5.3,1-11.6,1.5-18.7,1.5c-6.4,0-12.1-1.1-17.3-3.2
	c-5.2-2.2-9.7-5.2-13.3-9.2c-3.7-4-6.5-8.9-8.6-14.6c-2-5.7-3-12.1-3-19.2c0-6.9,0.9-13.1,2.6-18.8c1.7-5.6,4.2-10.5,7.5-14.6
	c3.3-4.1,7.3-7.2,11.9-9.5c4.6-2.3,9.9-3.4,15.9-3.4c4.7,0,8.8,0.6,12.4,1.7c3.6,1.1,6.2,2.4,8,3.6V510.8z M818.7,570.5
	c-1.8-1.6-4.4-3.2-7.8-4.7c-3.4-1.5-7-2.2-10.7-2.2c-4.2,0-7.8,0.8-10.8,2.5c-3,1.7-5.4,3.9-7.3,6.8c-1.9,2.9-3.3,6.3-4.2,10.3
	c-0.9,4-1.3,8.3-1.3,12.9c0,10.3,2.4,18.2,7.2,23.8c4.8,5.6,11.1,8.4,18.9,8.4c3.9,0,7.3-0.2,10-0.6c2.7-0.4,4.7-0.8,6-1.1V570.5z"
	/>
</svg>
